<svg xmlns="http://www.w3.org/2000/svg" xmlns:xlink="http://www.w3.org/1999/xlink" width="500" zoomAndPan="magnify" viewBox="0 0 375 374.999991" height="500" preserveAspectRatio="xMidYMid meet" version="1.0"><defs><g/><clipPath id="93a0021d8e"><path d="M 28.398438 28.398438 L 346.398438 28.398438 L 346.398438 346.398438 L 28.398438 346.398438 Z M 28.398438 28.398438 " clip-rule="nonzero"/></clipPath><clipPath id="5df657592a"><path d="M 187.5 28.398438 C 99.628906 28.398438 28.398438 99.628906 28.398438 187.5 C 28.398438 275.367188 99.628906 346.597656 187.5 346.597656 C 275.367188 346.597656 346.597656 275.367188 346.597656 187.5 C 346.597656 99.628906 275.367188 28.398438 187.5 28.398438 Z M 187.5 28.398438 " clip-rule="nonzero"/></clipPath><clipPath id="b2fa583b67"><path d="M 37.5 37.5 L 337.5 37.5 L 337.5 337.5 L 37.5 337.5 Z M 37.5 37.5 " clip-rule="nonzero"/></clipPath><clipPath id="160b7d409d"><path d="M 187.5 37.5 C 104.65625 37.5 37.5 104.65625 37.5 187.5 C 37.5 270.34375 104.65625 337.5 187.5 337.5 C 270.34375 337.5 337.5 270.34375 337.5 187.5 C 337.5 104.65625 270.34375 37.5 187.5 37.5 Z M 187.5 37.5 " clip-rule="nonzero"/></clipPath></defs><g clip-path="url(#93a0021d8e)"><g clip-path="url(#5df657592a)"><path stroke-linecap="butt" transform="matrix(0.75, 0, 0, 0.75, 28.399463, 28.399459)" fill="none" stroke-linejoin="miter" d="M 212.134063 -0.00136138 C 94.972597 -0.00136138 -0.00136738 94.972603 -0.00136738 212.134069 C -0.00136738 329.290327 94.972597 424.264291 212.134063 424.264291 C 329.290321 424.264291 424.264285 329.290327 424.264285 212.134069 C 424.264285 94.972603 329.290321 -0.00136138 212.134063 -0.00136138 Z M 212.134063 -0.00136138 " stroke="#abedd8" stroke-width="4" stroke-opacity="1" stroke-miterlimit="4"/></g></g><g clip-path="url(#b2fa583b67)"><g clip-path="url(#160b7d409d)"><path fill="#abedd8" d="M 37.5 37.5 L 337.5 37.5 L 337.5 337.5 L 37.5 337.5 Z M 37.5 37.5 " fill-opacity="1" fill-rule="nonzero"/></g></g><g fill="#111111" fill-opacity="1"><g transform="translate(124.95842, 230.815368)"><g><path d="M 70.671875 -136.859375 C 80.472656 -136.859375 88.851562 -135.0625 95.8125 -131.46875 C 102.769531 -127.882812 108.023438 -122.863281 111.578125 -116.40625 C 115.140625 -109.945312 116.921875 -102.441406 116.921875 -93.890625 C 116.921875 -85.335938 115.140625 -77.847656 111.578125 -71.421875 C 108.023438 -64.992188 102.769531 -59.984375 95.8125 -56.390625 C 88.851562 -52.804688 80.472656 -51.015625 70.671875 -51.015625 L 44.84375 -51.015625 L 44.84375 0 L 17.78125 0 L 17.78125 -136.859375 Z M 67.125 -72.453125 C 82.164062 -72.453125 89.6875 -79.597656 89.6875 -93.890625 C 89.6875 -108.242188 82.164062 -115.421875 67.125 -115.421875 L 44.84375 -115.421875 L 44.84375 -72.453125 Z M 67.125 -72.453125 "/></g></g></g><g fill="#111111" fill-opacity="1"><g transform="translate(104.07886, 268.123358)"><g><path d="M 9.453125 -18.3125 C 10.765625 -18.3125 11.882812 -18.070312 12.8125 -17.59375 C 13.75 -17.113281 14.453125 -16.441406 14.921875 -15.578125 C 15.398438 -14.710938 15.640625 -13.707031 15.640625 -12.5625 C 15.640625 -11.414062 15.398438 -10.410156 14.921875 -9.546875 C 14.453125 -8.691406 13.75 -8.023438 12.8125 -7.546875 C 11.882812 -7.066406 10.765625 -6.828125 9.453125 -6.828125 L 6 -6.828125 L 6 0 L 2.375 0 L 2.375 -18.3125 Z M 8.984375 -9.703125 C 10.992188 -9.703125 12 -10.65625 12 -12.5625 C 12 -14.488281 10.992188 -15.453125 8.984375 -15.453125 L 6 -15.453125 L 6 -9.703125 Z M 8.984375 -9.703125 "/></g></g></g><g fill="#111111" fill-opacity="1"><g transform="translate(123.217002, 268.123358)"><g><path d="M 6 -18.3125 L 6 -3.03125 L 14.234375 -3.03125 L 14.234375 0 L 2.375 0 L 2.375 -18.3125 Z M 6 -18.3125 "/></g></g></g><g fill="#111111" fill-opacity="1"><g transform="translate(140.45213, 268.123358)"><g><path d="M 17.578125 0 L 13.765625 0 L 12.390625 -4.21875 L 5.375 -4.21875 L 4 0 L 0.28125 0 L 6.609375 -18.3125 L 11.25 -18.3125 Z M 8.703125 -14.5 L 6.34375 -7.265625 L 11.390625 -7.265625 L 9.015625 -14.5 Z M 8.703125 -14.5 "/></g></g></g><g fill="#111111" fill-opacity="1"><g transform="translate(160.704537, 268.123358)"><g><path d="M 5.890625 0 L 2.375 0 L 2.375 -18.3125 L 6.53125 -18.3125 L 13.875 -6.515625 L 14.203125 -6.5625 L 14.203125 -18.3125 L 17.6875 -18.3125 L 17.6875 0 L 13.984375 0 L 6.203125 -12.609375 L 5.890625 -12.546875 Z M 5.890625 0 "/></g></g></g><g fill="#111111" fill-opacity="1"><g transform="translate(183.185475, 268.123358)"><g><path d="M 14.6875 -18.3125 L 14.6875 -15.265625 L 9.390625 -15.265625 L 9.390625 0 L 5.78125 0 L 5.78125 -15.265625 L 0.5 -15.265625 L 0.5 -18.3125 Z M 14.6875 -18.3125 "/></g></g></g><g fill="#111111" fill-opacity="1"><g transform="translate(200.771152, 268.123358)"><g><path d="M 9.984375 0.265625 C 8.304688 0.265625 6.828125 -0.078125 5.546875 -0.765625 C 4.265625 -1.453125 3.257812 -2.5 2.53125 -3.90625 C 1.800781 -5.3125 1.4375 -7.0625 1.4375 -9.15625 C 1.4375 -11.25 1.800781 -13 2.53125 -14.40625 C 3.257812 -15.820312 4.265625 -16.867188 5.546875 -17.546875 C 6.828125 -18.234375 8.304688 -18.578125 9.984375 -18.578125 C 11.660156 -18.578125 13.132812 -18.234375 14.40625 -17.546875 C 15.6875 -16.867188 16.6875 -15.820312 17.40625 -14.40625 C 18.132812 -13 18.5 -11.25 18.5 -9.15625 C 18.5 -7.0625 18.132812 -5.304688 17.40625 -3.890625 C 16.6875 -2.484375 15.6875 -1.4375 14.40625 -0.75 C 13.132812 -0.0703125 11.660156 0.265625 9.984375 0.265625 Z M 9.984375 -2.875 C 11.535156 -2.875 12.71875 -3.375 13.53125 -4.375 C 14.351562 -5.375 14.765625 -6.96875 14.765625 -9.15625 C 14.765625 -11.34375 14.351562 -12.9375 13.53125 -13.9375 C 12.71875 -14.945312 11.535156 -15.453125 9.984375 -15.453125 C 8.421875 -15.453125 7.226562 -14.945312 6.40625 -13.9375 C 5.582031 -12.9375 5.171875 -11.34375 5.171875 -9.15625 C 5.171875 -6.96875 5.582031 -5.375 6.40625 -4.375 C 7.226562 -3.375 8.421875 -2.875 9.984375 -2.875 Z M 9.984375 -2.875 "/></g></g></g><g fill="#111111" fill-opacity="1"><g transform="translate(223.126887, 268.123358)"><g><path d="M 9.453125 -18.3125 C 10.765625 -18.3125 11.882812 -18.070312 12.8125 -17.59375 C 13.75 -17.113281 14.453125 -16.441406 14.921875 -15.578125 C 15.398438 -14.710938 15.640625 -13.707031 15.640625 -12.5625 C 15.640625 -11.414062 15.398438 -10.410156 14.921875 -9.546875 C 14.453125 -8.691406 13.75 -8.023438 12.8125 -7.546875 C 11.882812 -7.066406 10.765625 -6.828125 9.453125 -6.828125 L 6 -6.828125 L 6 0 L 2.375 0 L 2.375 -18.3125 Z M 8.984375 -9.703125 C 10.992188 -9.703125 12 -10.65625 12 -12.5625 C 12 -14.488281 10.992188 -15.453125 8.984375 -15.453125 L 6 -15.453125 L 6 -9.703125 Z M 8.984375 -9.703125 "/></g></g></g><g fill="#111111" fill-opacity="1"><g transform="translate(242.265023, 268.123358)"><g><path d="M 6 0 L 2.375 0 L 2.375 -18.3125 L 6 -18.3125 Z M 6 0 "/></g></g></g><g fill="#111111" fill-opacity="1"><g transform="translate(253.064961, 268.123358)"><g><path d="M 17.578125 0 L 13.765625 0 L 12.390625 -4.21875 L 5.375 -4.21875 L 4 0 L 0.28125 0 L 6.609375 -18.3125 L 11.25 -18.3125 Z M 8.703125 -14.5 L 6.34375 -7.265625 L 11.390625 -7.265625 L 9.015625 -14.5 Z M 8.703125 -14.5 "/></g></g></g><g fill="#111111" fill-opacity="1"><g transform="translate(125.735255, 284.944502)"><g><path d="M 2.046875 0 L 1.09375 0 L 0.125 -4.296875 L 0.96875 -4.296875 L 1.609375 -1.28125 L 1.6875 -1.28125 L 2.453125 -4.296875 L 3.1875 -4.296875 L 3.96875 -1.28125 L 4.03125 -1.28125 L 4.6875 -4.296875 L 5.5 -4.296875 L 4.53125 0 L 3.578125 0 L 2.828125 -2.765625 L 2.765625 -2.765625 Z M 2.046875 0 "/></g></g></g><g fill="#111111" fill-opacity="1"><g transform="translate(133.633081, 284.944502)"><g><path d="M 3.328125 -2.671875 L 3.328125 -4.296875 L 4.171875 -4.296875 L 4.171875 0 L 3.328125 0 L 3.328125 -1.953125 L 1.40625 -1.953125 L 1.40625 0 L 0.5625 0 L 0.5625 -4.296875 L 1.40625 -4.296875 L 1.40625 -2.671875 Z M 3.328125 -2.671875 "/></g></g></g><g fill="#111111" fill-opacity="1"><g transform="translate(140.647237, 284.944502)"><g><path d="M 1.40625 -1.890625 L 1.40625 -0.703125 L 3.453125 -0.703125 L 3.453125 0 L 0.5625 0 L 0.5625 -4.296875 L 3.40625 -4.296875 L 3.40625 -3.578125 L 1.40625 -3.578125 L 1.40625 -2.578125 L 3.15625 -2.578125 L 3.15625 -1.890625 Z M 1.40625 -1.890625 "/></g></g></g><g fill="#111111" fill-opacity="1"><g transform="translate(146.616252, 284.944502)"><g><path d="M 0.5625 0 L 0.5625 -4.296875 L 2.28125 -4.296875 C 2.726562 -4.296875 3.0625 -4.191406 3.28125 -3.984375 C 3.507812 -3.785156 3.625 -3.503906 3.625 -3.140625 C 3.625 -2.878906 3.554688 -2.664062 3.421875 -2.5 C 3.296875 -2.332031 3.101562 -2.207031 2.84375 -2.125 L 2.84375 -2.0625 C 2.976562 -2 3.085938 -1.910156 3.171875 -1.796875 C 3.253906 -1.679688 3.332031 -1.507812 3.40625 -1.28125 L 3.828125 0 L 2.953125 0 L 2.53125 -1.28125 C 2.488281 -1.414062 2.441406 -1.515625 2.390625 -1.578125 C 2.335938 -1.648438 2.269531 -1.703125 2.1875 -1.734375 C 2.101562 -1.765625 1.992188 -1.78125 1.859375 -1.78125 L 1.40625 -1.78125 L 1.40625 0 Z M 2.171875 -2.46875 C 2.585938 -2.46875 2.796875 -2.65625 2.796875 -3.03125 C 2.796875 -3.425781 2.585938 -3.625 2.171875 -3.625 L 1.40625 -3.625 L 1.40625 -2.46875 Z M 2.171875 -2.46875 "/></g></g></g><g fill="#111111" fill-opacity="1"><g transform="translate(152.908204, 284.944502)"><g><path d="M 1.40625 -1.890625 L 1.40625 -0.703125 L 3.453125 -0.703125 L 3.453125 0 L 0.5625 0 L 0.5625 -4.296875 L 3.40625 -4.296875 L 3.40625 -3.578125 L 1.40625 -3.578125 L 1.40625 -2.578125 L 3.15625 -2.578125 L 3.15625 -1.890625 Z M 1.40625 -1.890625 "/></g></g></g><g fill="#111111" fill-opacity="1"><g transform="translate(158.877222, 284.944502)"><g/></g></g><g fill="#111111" fill-opacity="1"><g transform="translate(162.573938, 284.944502)"><g><path d="M 2.109375 -4.296875 C 2.804688 -4.296875 3.335938 -4.113281 3.703125 -3.75 C 4.066406 -3.394531 4.25 -2.859375 4.25 -2.140625 C 4.25 -1.429688 4.066406 -0.894531 3.703125 -0.53125 C 3.335938 -0.175781 2.804688 0 2.109375 0 L 0.5625 0 L 0.5625 -4.296875 Z M 2.046875 -0.71875 C 2.492188 -0.71875 2.828125 -0.828125 3.046875 -1.046875 C 3.265625 -1.273438 3.375 -1.640625 3.375 -2.140625 C 3.375 -2.648438 3.265625 -3.015625 3.046875 -3.234375 C 2.828125 -3.460938 2.492188 -3.578125 2.046875 -3.578125 L 1.40625 -3.578125 L 1.40625 -0.71875 Z M 2.046875 -0.71875 "/></g></g></g><g fill="#111111" fill-opacity="1"><g transform="translate(169.441302, 284.944502)"><g><path d="M 0.5625 0 L 0.5625 -4.296875 L 2.28125 -4.296875 C 2.726562 -4.296875 3.0625 -4.191406 3.28125 -3.984375 C 3.507812 -3.785156 3.625 -3.503906 3.625 -3.140625 C 3.625 -2.878906 3.554688 -2.664062 3.421875 -2.5 C 3.296875 -2.332031 3.101562 -2.207031 2.84375 -2.125 L 2.84375 -2.0625 C 2.976562 -2 3.085938 -1.910156 3.171875 -1.796875 C 3.253906 -1.679688 3.332031 -1.507812 3.40625 -1.28125 L 3.828125 0 L 2.953125 0 L 2.53125 -1.28125 C 2.488281 -1.414062 2.441406 -1.515625 2.390625 -1.578125 C 2.335938 -1.648438 2.269531 -1.703125 2.1875 -1.734375 C 2.101562 -1.765625 1.992188 -1.78125 1.859375 -1.78125 L 1.40625 -1.78125 L 1.40625 0 Z M 2.171875 -2.46875 C 2.585938 -2.46875 2.796875 -2.65625 2.796875 -3.03125 C 2.796875 -3.425781 2.585938 -3.625 2.171875 -3.625 L 1.40625 -3.625 L 1.40625 -2.46875 Z M 2.171875 -2.46875 "/></g></g></g><g fill="#111111" fill-opacity="1"><g transform="translate(175.733256, 284.944502)"><g><path d="M 1.40625 -1.890625 L 1.40625 -0.703125 L 3.453125 -0.703125 L 3.453125 0 L 0.5625 0 L 0.5625 -4.296875 L 3.40625 -4.296875 L 3.40625 -3.578125 L 1.40625 -3.578125 L 1.40625 -2.578125 L 3.15625 -2.578125 L 3.15625 -1.890625 Z M 1.40625 -1.890625 "/></g></g></g><g fill="#111111" fill-opacity="1"><g transform="translate(181.702274, 284.944502)"><g><path d="M 4.125 0 L 3.234375 0 L 2.90625 -0.984375 L 1.265625 -0.984375 L 0.9375 0 L 0.0625 0 L 1.546875 -4.296875 L 2.640625 -4.296875 Z M 2.046875 -3.40625 L 1.484375 -1.703125 L 2.671875 -1.703125 L 2.109375 -3.40625 Z M 2.046875 -3.40625 "/></g></g></g><g fill="#111111" fill-opacity="1"><g transform="translate(188.164503, 284.944502)"><g><path d="M 1.34375 0 L 0.5625 0 L 0.5625 -4.296875 L 1.671875 -4.296875 L 2.75 -1.140625 L 2.8125 -1.140625 L 3.890625 -4.296875 L 4.984375 -4.296875 L 4.984375 0 L 4.171875 0 L 4.171875 -2.84375 L 4.109375 -2.84375 L 3.109375 0 L 2.40625 0 L 1.40625 -2.84375 L 1.34375 -2.84375 Z M 1.34375 0 "/></g></g></g><g fill="#111111" fill-opacity="1"><g transform="translate(195.983066, 284.944502)"><g><path d="M 1.90625 0.0625 C 1.601562 0.0625 1.335938 0.0234375 1.109375 -0.046875 C 0.878906 -0.117188 0.6875 -0.210938 0.53125 -0.328125 C 0.375 -0.453125 0.253906 -0.585938 0.171875 -0.734375 L 0.640625 -1.296875 L 0.71875 -1.296875 C 0.84375 -1.109375 1.003906 -0.957031 1.203125 -0.84375 C 1.398438 -0.726562 1.632812 -0.671875 1.90625 -0.671875 C 2.132812 -0.671875 2.304688 -0.71875 2.421875 -0.8125 C 2.535156 -0.90625 2.59375 -1.039062 2.59375 -1.21875 C 2.59375 -1.3125 2.570312 -1.394531 2.53125 -1.46875 C 2.5 -1.539062 2.4375 -1.597656 2.34375 -1.640625 C 2.257812 -1.691406 2.144531 -1.734375 2 -1.765625 L 1.453125 -1.890625 C 1.066406 -1.984375 0.773438 -2.128906 0.578125 -2.328125 C 0.390625 -2.535156 0.296875 -2.804688 0.296875 -3.140625 C 0.296875 -3.378906 0.359375 -3.585938 0.484375 -3.765625 C 0.609375 -3.953125 0.785156 -4.097656 1.015625 -4.203125 C 1.242188 -4.304688 1.519531 -4.359375 1.84375 -4.359375 C 2.175781 -4.359375 2.457031 -4.3125 2.6875 -4.21875 C 2.925781 -4.132812 3.128906 -4.003906 3.296875 -3.828125 L 2.875 -3.25 L 2.796875 -3.25 C 2.679688 -3.375 2.546875 -3.46875 2.390625 -3.53125 C 2.234375 -3.59375 2.050781 -3.625 1.84375 -3.625 C 1.613281 -3.625 1.4375 -3.582031 1.3125 -3.5 C 1.195312 -3.425781 1.140625 -3.316406 1.140625 -3.171875 C 1.140625 -3.035156 1.179688 -2.925781 1.265625 -2.84375 C 1.347656 -2.757812 1.492188 -2.695312 1.703125 -2.65625 L 2.265625 -2.53125 C 2.679688 -2.445312 2.984375 -2.300781 3.171875 -2.09375 C 3.359375 -1.882812 3.453125 -1.609375 3.453125 -1.265625 C 3.453125 -0.992188 3.394531 -0.757812 3.28125 -0.5625 C 3.164062 -0.363281 2.988281 -0.207031 2.75 -0.09375 C 2.519531 0.0078125 2.238281 0.0625 1.90625 0.0625 Z M 1.90625 0.0625 "/></g></g></g><g fill="#111111" fill-opacity="1"><g transform="translate(201.949147, 284.944502)"><g/></g></g><g fill="#111111" fill-opacity="1"><g transform="translate(205.645867, 284.944502)"><g><path d="M 0.5625 0 L 0.5625 -4.296875 L 2.390625 -4.296875 C 2.648438 -4.296875 2.875 -4.253906 3.0625 -4.171875 C 3.25 -4.085938 3.390625 -3.96875 3.484375 -3.8125 C 3.578125 -3.65625 3.625 -3.472656 3.625 -3.265625 C 3.625 -3.078125 3.578125 -2.910156 3.484375 -2.765625 C 3.390625 -2.617188 3.253906 -2.503906 3.078125 -2.421875 L 3.078125 -2.359375 C 3.347656 -2.285156 3.554688 -2.15625 3.703125 -1.96875 C 3.859375 -1.78125 3.9375 -1.550781 3.9375 -1.28125 C 3.9375 -0.875 3.8125 -0.554688 3.5625 -0.328125 C 3.3125 -0.109375 2.941406 0 2.453125 0 Z M 2.21875 -2.578125 C 2.613281 -2.578125 2.8125 -2.753906 2.8125 -3.109375 C 2.8125 -3.296875 2.757812 -3.429688 2.65625 -3.515625 C 2.5625 -3.609375 2.414062 -3.65625 2.21875 -3.65625 L 1.40625 -3.65625 L 1.40625 -2.578125 Z M 2.375 -0.671875 C 2.84375 -0.671875 3.078125 -0.882812 3.078125 -1.3125 C 3.078125 -1.738281 2.84375 -1.953125 2.375 -1.953125 L 1.40625 -1.953125 L 1.40625 -0.671875 Z M 2.375 -0.671875 "/></g></g></g><g fill="#111111" fill-opacity="1"><g transform="translate(212.122776, 284.944502)"><g><path d="M 1.40625 -4.296875 L 1.40625 -0.703125 L 3.34375 -0.703125 L 3.34375 0 L 0.5625 0 L 0.5625 -4.296875 Z M 1.40625 -4.296875 "/></g></g></g><g fill="#111111" fill-opacity="1"><g transform="translate(217.877481, 284.944502)"><g><path d="M 2.34375 0.0625 C 1.945312 0.0625 1.597656 -0.015625 1.296875 -0.171875 C 0.992188 -0.335938 0.757812 -0.582031 0.59375 -0.90625 C 0.425781 -1.238281 0.34375 -1.648438 0.34375 -2.140625 C 0.34375 -2.640625 0.425781 -3.050781 0.59375 -3.375 C 0.757812 -3.707031 0.992188 -3.953125 1.296875 -4.109375 C 1.597656 -4.273438 1.945312 -4.359375 2.34375 -4.359375 C 2.738281 -4.359375 3.082031 -4.273438 3.375 -4.109375 C 3.675781 -3.953125 3.910156 -3.707031 4.078125 -3.375 C 4.253906 -3.050781 4.34375 -2.640625 4.34375 -2.140625 C 4.34375 -1.648438 4.253906 -1.238281 4.078125 -0.90625 C 3.910156 -0.582031 3.675781 -0.335938 3.375 -0.171875 C 3.082031 -0.015625 2.738281 0.0625 2.34375 0.0625 Z M 2.34375 -0.671875 C 2.707031 -0.671875 2.984375 -0.785156 3.171875 -1.015625 C 3.367188 -1.253906 3.46875 -1.628906 3.46875 -2.140625 C 3.46875 -2.660156 3.367188 -3.035156 3.171875 -3.265625 C 2.984375 -3.503906 2.707031 -3.625 2.34375 -3.625 C 1.976562 -3.625 1.695312 -3.503906 1.5 -3.265625 C 1.3125 -3.035156 1.21875 -2.660156 1.21875 -2.140625 C 1.21875 -1.628906 1.3125 -1.253906 1.5 -1.015625 C 1.695312 -0.785156 1.976562 -0.671875 2.34375 -0.671875 Z M 2.34375 -0.671875 "/></g></g></g><g fill="#111111" fill-opacity="1"><g transform="translate(224.832922, 284.944502)"><g><path d="M 1.90625 0.0625 C 1.601562 0.0625 1.335938 0.0234375 1.109375 -0.046875 C 0.878906 -0.117188 0.6875 -0.210938 0.53125 -0.328125 C 0.375 -0.453125 0.253906 -0.585938 0.171875 -0.734375 L 0.640625 -1.296875 L 0.71875 -1.296875 C 0.84375 -1.109375 1.003906 -0.957031 1.203125 -0.84375 C 1.398438 -0.726562 1.632812 -0.671875 1.90625 -0.671875 C 2.132812 -0.671875 2.304688 -0.71875 2.421875 -0.8125 C 2.535156 -0.90625 2.59375 -1.039062 2.59375 -1.21875 C 2.59375 -1.3125 2.570312 -1.394531 2.53125 -1.46875 C 2.5 -1.539062 2.4375 -1.597656 2.34375 -1.640625 C 2.257812 -1.691406 2.144531 -1.734375 2 -1.765625 L 1.453125 -1.890625 C 1.066406 -1.984375 0.773438 -2.128906 0.578125 -2.328125 C 0.390625 -2.535156 0.296875 -2.804688 0.296875 -3.140625 C 0.296875 -3.378906 0.359375 -3.585938 0.484375 -3.765625 C 0.609375 -3.953125 0.785156 -4.097656 1.015625 -4.203125 C 1.242188 -4.304688 1.519531 -4.359375 1.84375 -4.359375 C 2.175781 -4.359375 2.457031 -4.3125 2.6875 -4.21875 C 2.925781 -4.132812 3.128906 -4.003906 3.296875 -3.828125 L 2.875 -3.25 L 2.796875 -3.25 C 2.679688 -3.375 2.546875 -3.46875 2.390625 -3.53125 C 2.234375 -3.59375 2.050781 -3.625 1.84375 -3.625 C 1.613281 -3.625 1.4375 -3.582031 1.3125 -3.5 C 1.195312 -3.425781 1.140625 -3.316406 1.140625 -3.171875 C 1.140625 -3.035156 1.179688 -2.925781 1.265625 -2.84375 C 1.347656 -2.757812 1.492188 -2.695312 1.703125 -2.65625 L 2.265625 -2.53125 C 2.679688 -2.445312 2.984375 -2.300781 3.171875 -2.09375 C 3.359375 -1.882812 3.453125 -1.609375 3.453125 -1.265625 C 3.453125 -0.992188 3.394531 -0.757812 3.28125 -0.5625 C 3.164062 -0.363281 2.988281 -0.207031 2.75 -0.09375 C 2.519531 0.0078125 2.238281 0.0625 1.90625 0.0625 Z M 1.90625 0.0625 "/></g></g></g><g fill="#111111" fill-opacity="1"><g transform="translate(230.799004, 284.944502)"><g><path d="M 1.90625 0.0625 C 1.601562 0.0625 1.335938 0.0234375 1.109375 -0.046875 C 0.878906 -0.117188 0.6875 -0.210938 0.53125 -0.328125 C 0.375 -0.453125 0.253906 -0.585938 0.171875 -0.734375 L 0.640625 -1.296875 L 0.71875 -1.296875 C 0.84375 -1.109375 1.003906 -0.957031 1.203125 -0.84375 C 1.398438 -0.726562 1.632812 -0.671875 1.90625 -0.671875 C 2.132812 -0.671875 2.304688 -0.71875 2.421875 -0.8125 C 2.535156 -0.90625 2.59375 -1.039062 2.59375 -1.21875 C 2.59375 -1.3125 2.570312 -1.394531 2.53125 -1.46875 C 2.5 -1.539062 2.4375 -1.597656 2.34375 -1.640625 C 2.257812 -1.691406 2.144531 -1.734375 2 -1.765625 L 1.453125 -1.890625 C 1.066406 -1.984375 0.773438 -2.128906 0.578125 -2.328125 C 0.390625 -2.535156 0.296875 -2.804688 0.296875 -3.140625 C 0.296875 -3.378906 0.359375 -3.585938 0.484375 -3.765625 C 0.609375 -3.953125 0.785156 -4.097656 1.015625 -4.203125 C 1.242188 -4.304688 1.519531 -4.359375 1.84375 -4.359375 C 2.175781 -4.359375 2.457031 -4.3125 2.6875 -4.21875 C 2.925781 -4.132812 3.128906 -4.003906 3.296875 -3.828125 L 2.875 -3.25 L 2.796875 -3.25 C 2.679688 -3.375 2.546875 -3.46875 2.390625 -3.53125 C 2.234375 -3.59375 2.050781 -3.625 1.84375 -3.625 C 1.613281 -3.625 1.4375 -3.582031 1.3125 -3.5 C 1.195312 -3.425781 1.140625 -3.316406 1.140625 -3.171875 C 1.140625 -3.035156 1.179688 -2.925781 1.265625 -2.84375 C 1.347656 -2.757812 1.492188 -2.695312 1.703125 -2.65625 L 2.265625 -2.53125 C 2.679688 -2.445312 2.984375 -2.300781 3.171875 -2.09375 C 3.359375 -1.882812 3.453125 -1.609375 3.453125 -1.265625 C 3.453125 -0.992188 3.394531 -0.757812 3.28125 -0.5625 C 3.164062 -0.363281 2.988281 -0.207031 2.75 -0.09375 C 2.519531 0.0078125 2.238281 0.0625 1.90625 0.0625 Z M 1.90625 0.0625 "/></g></g></g><g fill="#111111" fill-opacity="1"><g transform="translate(236.765086, 284.944502)"><g><path d="M 2.34375 0.0625 C 1.945312 0.0625 1.597656 -0.015625 1.296875 -0.171875 C 0.992188 -0.335938 0.757812 -0.582031 0.59375 -0.90625 C 0.425781 -1.238281 0.34375 -1.648438 0.34375 -2.140625 C 0.34375 -2.640625 0.425781 -3.050781 0.59375 -3.375 C 0.757812 -3.707031 0.992188 -3.953125 1.296875 -4.109375 C 1.597656 -4.273438 1.945312 -4.359375 2.34375 -4.359375 C 2.738281 -4.359375 3.082031 -4.273438 3.375 -4.109375 C 3.675781 -3.953125 3.910156 -3.707031 4.078125 -3.375 C 4.253906 -3.050781 4.34375 -2.640625 4.34375 -2.140625 C 4.34375 -1.648438 4.253906 -1.238281 4.078125 -0.90625 C 3.910156 -0.582031 3.675781 -0.335938 3.375 -0.171875 C 3.082031 -0.015625 2.738281 0.0625 2.34375 0.0625 Z M 2.34375 -0.671875 C 2.707031 -0.671875 2.984375 -0.785156 3.171875 -1.015625 C 3.367188 -1.253906 3.46875 -1.628906 3.46875 -2.140625 C 3.46875 -2.660156 3.367188 -3.035156 3.171875 -3.265625 C 2.984375 -3.503906 2.707031 -3.625 2.34375 -3.625 C 1.976562 -3.625 1.695312 -3.503906 1.5 -3.265625 C 1.3125 -3.035156 1.21875 -2.660156 1.21875 -2.140625 C 1.21875 -1.628906 1.3125 -1.253906 1.5 -1.015625 C 1.695312 -0.785156 1.976562 -0.671875 2.34375 -0.671875 Z M 2.34375 -0.671875 "/></g></g></g><g fill="#111111" fill-opacity="1"><g transform="translate(243.720528, 284.944502)"><g><path d="M 1.34375 0 L 0.5625 0 L 0.5625 -4.296875 L 1.671875 -4.296875 L 2.75 -1.140625 L 2.8125 -1.140625 L 3.890625 -4.296875 L 4.984375 -4.296875 L 4.984375 0 L 4.171875 0 L 4.171875 -2.84375 L 4.109375 -2.84375 L 3.109375 0 L 2.40625 0 L 1.40625 -2.84375 L 1.34375 -2.84375 Z M 1.34375 0 "/></g></g></g></svg>