<svg xmlns="http://www.w3.org/2000/svg" xmlns:xlink="http://www.w3.org/1999/xlink" width="500" zoomAndPan="magnify" viewBox="0 0 375 374.999991" height="500" preserveAspectRatio="xMidYMid meet" version="1.0"><defs><g/></defs><rect x="-37.5" width="450" fill="#ffffff" y="-37.499999" height="449.999989" fill-opacity="1"/><rect x="-37.5" width="450" fill="#abedd8" y="-37.499999" height="449.999989" fill-opacity="1"/><g fill="#111111" fill-opacity="1"><g transform="translate(105.796786, 281.427837)"><g><path d="M 92.328125 -178.796875 C 105.128906 -178.796875 116.078125 -176.453125 125.171875 -171.765625 C 134.265625 -167.078125 141.132812 -160.515625 145.78125 -152.078125 C 150.425781 -143.640625 152.75 -133.835938 152.75 -122.671875 C 152.75 -111.492188 150.425781 -101.707031 145.78125 -93.3125 C 141.132812 -84.914062 134.265625 -78.375 125.171875 -73.6875 C 116.078125 -69 105.128906 -66.65625 92.328125 -66.65625 L 58.578125 -66.65625 L 58.578125 0 L 23.234375 0 L 23.234375 -178.796875 Z M 87.6875 -94.65625 C 107.332031 -94.65625 117.15625 -103.992188 117.15625 -122.671875 C 117.15625 -141.421875 107.332031 -150.796875 87.6875 -150.796875 L 58.578125 -150.796875 L 58.578125 -94.65625 Z M 87.6875 -94.65625 "/></g></g></g></svg>